<svg width="46" height="46" viewBox="0 0 46 46" fill="none" xmlns="http://www.w3.org/2000/svg">
<path d="M19.65 11.34H16.17V34.86H19.65V11.34Z" fill="black"/>
<path d="M12.69 11.34H10.95V34.86H12.69V11.34Z" fill="black"/>
<path d="M28.36 34.86H30.1V22.8C29.49 22.47 28.91 22.09 28.36 21.68V34.86Z" fill="black"/>
<path d="M21.4 11.34V34.86H26.62V20.1C24.49 17.79 23.18 14.72 23.15 11.34H21.4V11.34Z" fill="black"/>
<path d="M33.59 24.07V34.86H37.56V24.27C37.13 24.31 36.7 24.34 36.27 24.34C35.35 24.34 34.46 24.24 33.6 24.07H33.59Z" fill="black"/>
<path d="M36.2599 2.04C32.9899 2.04 30.1199 3.76 28.4899 6.34C27.5999 7.76 27.0699 9.43 27.0699 11.22C27.0699 13.01 27.5399 14.52 28.3499 15.89C28.8199 16.69 29.4099 17.4 30.0899 18.02C31.0799 18.92 32.2599 19.61 33.5699 20.01C34.4199 20.27 35.3099 20.41 36.2399 20.41C36.6799 20.41 37.1099 20.37 37.5299 20.31C41.9899 19.68 45.4199 15.86 45.4199 11.23C45.4199 6.16 41.3099 2.05 36.2399 2.05L36.2599 2.04Z" fill="#C4C3E2"/>
<path d="M9.19997 11.34H5.71997V34.86H9.19997V11.34Z" fill="black"/>
<path d="M3.98 11.34H0.5V34.86H3.98V11.34Z" fill="black"/>
</svg>
