<svg width="422" height="299" viewBox="0 0 422 299" fill="none" xmlns="http://www.w3.org/2000/svg">
<path d="M420.51 1V0.5H420.01H361.661H361.516L361.393 0.578064L287.841 47.3433L287.609 47.4906V47.7652V102.325V103.227L288.375 102.749L356.463 60.1616H357.463V298V298.5H357.963H420.01H420.51V298V1Z" stroke="#E0E0E0"/>
<path d="M233.437 108.537H222.039V190H233.437V108.537ZM166.109 166.904L172.029 176.035C200.745 162.294 209.272 141.749 209.316 117.041H170.439V125.993H197.83C196.018 144.076 186.873 156.967 166.109 166.904Z" fill="black"/>
<path d="M289.968 114.535H271.678V108H260.457V114.535H242.255V122.86H289.968V114.535ZM239.87 153.386L241.372 162.07C255.509 162.025 274.329 161.757 291.47 158.758L290.675 151.148C284.578 151.909 278.128 152.402 271.678 152.76V148.821C280.47 147.568 286.169 143.316 286.257 137.094C286.169 129.529 277.996 124.695 266.112 124.74C253.919 124.695 245.922 129.529 245.966 137.094C245.922 143.36 251.489 147.568 260.457 148.821V153.163C253.123 153.386 246.099 153.386 239.87 153.386ZM251.179 175.677H295.623V190H307.109V166.904H251.179V175.677ZM256.834 137.094C256.79 133.916 260.369 132.349 266.112 132.349C271.634 132.349 275.389 133.916 275.389 137.094C275.389 140.048 271.634 141.615 266.112 141.57C260.369 141.615 256.79 140.048 256.834 137.094ZM295.623 163.681H307.109V108.716H295.623V163.681Z" fill="black"/>
<path d="M66.3438 111.789H55.4297V131.984H42.625V140.836H55.4297V168.852H66.3438V111.789ZM0 151.234L5.58594 160.172C14.8242 157.121 21.0547 150.805 24.5352 143.027C27.9297 150.031 33.9023 155.703 42.5391 158.539L47.9531 149.859C35.5352 145.82 29.9492 136.152 29.9922 127.086V125.797H45.5469V117.031H3.09375V125.797H18.8203V127C18.7773 137.012 12.9336 147.195 0 151.234ZM14.4375 188.531H68.2344V179.766H25.4375V163.867H14.4375V188.531Z" fill="black"/>
<path d="M144.53 122.531H134.131V111.789H123.131V159.227H134.131V148.227H144.53V139.203H134.131V131.469H144.53V122.531ZM74.8344 124.852H100.1V131.727H74.9203V156.477H81.5375C97.393 156.52 107.448 156.004 118.662 153.984L117.459 145.219C107.491 147.023 98.725 147.453 85.8344 147.539V140.062H110.756V116.086H74.8344V124.852ZM81.4516 171.602H123.131V189.82H134.131V162.836H81.4516V171.602Z" fill="black"/>
</svg>
