<svg width="446" height="299" viewBox="0 0 446 299" fill="none" xmlns="http://www.w3.org/2000/svg">
<path d="M203.5 245.492V245.992H204H348.018V298V298.5H348.518H407.228H407.728V298V245.992H445H445.5V245.492V195.855V195.355H445H407.728V1V0.5H407.228H329.632H329.359L329.211 0.729864L203.579 196.405L203.5 196.529V196.675V245.492ZM266.905 195.355V193.54L346.738 69.1865H348.839V195.355H266.905Z" stroke="#E0E0E0"/>
<path d="M73.4912 153.596H0V162.877H16.8509V190H28.4084V162.877H44.8181V190H56.2874V162.877H73.4912V153.596ZM7.41087 129.266C7.36676 140.304 19.2771 147.333 36.525 147.288C53.773 147.333 65.8156 140.304 65.8156 129.266C65.8156 117.957 53.773 110.748 36.525 110.703C19.2771 110.748 7.36676 117.957 7.41087 129.266ZM18.9683 129.266C18.9242 123.229 25.7616 119.94 36.525 119.895C47.3767 119.94 54.17 123.229 54.17 129.266C54.17 135.033 47.3767 138.232 36.525 138.277C25.7616 138.232 18.9242 135.033 18.9683 129.266Z" fill="black"/>
<path d="M104.793 130.347V125.301H121.556V115.93H76.2085V125.301H93.2359V130.347C93.2359 144.224 86.3543 159.408 73.0324 165.49L79.4728 174.591C88.957 170.131 95.6179 161.12 99.2351 150.352C102.852 160.264 109.381 168.419 118.821 172.519L124.909 163.508C111.454 157.786 104.749 143.593 104.793 130.347ZM129.496 190H140.877V108H129.496V190Z" fill="black"/>
<path d="M220.703 171.077H189.383V155.938H212.498V113.226H201.293V125.932H166.268V113.226H154.976V155.938H178.179V171.077H147.212V180.448H220.703V171.077ZM166.268 146.747V135.123H201.293V146.747H166.268Z" fill="black"/>
<path d="M263.386 114.398V110.433H251.564V114.398C251.52 124.085 241.859 134.763 223.597 137.105L228.096 146.387C241.947 144.314 252.181 137.646 257.475 128.815C262.724 137.691 273.003 144.314 287.03 146.387L291.441 137.105C273.047 134.763 263.342 124.085 263.386 114.398ZM220.773 161.976H251.652V190H262.768V161.976H294V152.604H220.773V161.976Z" fill="black"/>
</svg>
