<svg width="361" height="286" viewBox="0 0 361 286" fill="none" xmlns="http://www.w3.org/2000/svg">
<path d="M158.221 285.005L158.225 285.5H158.721H360H360.5V285V237.022V236.522H360H240.432V235.686L283.016 194.439C340.911 142.205 356.614 115.958 356.614 83.8011C356.614 59.3738 346.543 38.5328 328.895 23.8072C311.253 9.08712 286.069 0.5 255.863 0.5C226.138 0.5 200.998 9.28325 183.306 24.9778C165.608 40.6778 155.403 63.26 155.501 90.7674L155.502 91.2657H156.001H211.566H212.07L212.066 90.7621C211.97 77.4268 216.207 66.6831 223.696 59.2974C231.186 51.9108 241.978 47.8346 255.082 47.9306L255.09 47.9305C267.911 47.8345 278.956 51.6259 286.789 58.4951C294.615 65.3587 299.272 75.3266 299.272 87.6703C299.272 109.668 285.279 125 259.019 149.986C259.018 149.987 259.017 149.988 259.016 149.989L157.995 242.457L157.83 242.607L157.832 242.83L158.221 285.005Z" stroke="#E0E0E0"/>
<path d="M62.4881 102H51.0865V183H62.4881V102ZM0 163.727H6.98241C24.3942 163.727 34.6469 163.372 45.7834 161.24L44.7228 151.914C34.6027 153.735 25.72 154.135 11.3133 154.135V118.342H39.1545V109.105H0V163.727Z" fill="black"/>
<path d="M98.5315 124.026V119.053H114.706V109.816H70.1599V119.053H87.2182V124.026C87.1298 137.393 80.3684 152.403 66.9781 158.664L73.5186 167.635C82.799 163.238 89.4278 154.179 93.0074 143.521C96.6312 153.202 102.995 161.462 111.966 165.592L118.241 156.711C105.028 150.538 98.4873 136.327 98.5315 124.026ZM120.981 182.822H132.295V142.322H144.138V132.819H132.295V102H120.981V182.822Z" fill="black"/>
<path d="M209.879 102.089H198.566V160.174H209.879V102.089ZM143.767 127.579C143.767 139.613 153.401 148.095 165.775 148.095C178.104 148.095 187.738 139.613 187.783 127.579C187.738 115.722 178.104 107.196 165.775 107.24C153.401 107.196 143.767 115.722 143.767 127.579ZM154.815 127.579C154.727 121.007 159.455 117.054 165.775 117.099C171.873 117.054 176.602 121.007 176.646 127.579C176.602 134.329 171.873 138.237 165.775 138.237C159.455 138.237 154.727 134.329 154.815 127.579ZM155.964 181.401H212V172.342H167.366V154.313H155.964V181.401Z" fill="black"/>
</svg>
