<svg width="496" height="299" viewBox="0 0 496 299" fill="none" xmlns="http://www.w3.org/2000/svg">
<path d="M352.014 169.161H378.521C395.262 169.261 408.748 173.434 418.012 180.462C427.264 187.481 432.329 197.364 432.232 208.976L432.232 208.984C432.329 220.5 427.359 230.188 418.842 237.033C410.317 243.884 398.217 247.9 384.063 248C356.489 247.8 336.075 233.716 335.104 212.55L335.082 212.073H334.604H274.462H273.95L273.962 212.584C275.158 263.451 320.594 298.5 383.668 298.5C448.5 298.5 495.353 262.867 494.957 212.972C495.155 194.798 489.429 179.2 478.325 167.494C467.3 155.871 451.012 148.124 430.066 145.466V143.929C462.094 137.983 484.471 114.911 484.274 82.4345C484.471 36.3724 444.396 0.5 384.459 0.5C325.528 0.5 280.894 35.1593 279.897 85.2199L279.887 85.7298H280.397H337.374H337.852L337.874 85.2521C338.846 63.4674 359.286 49.2048 384.455 49.4033L384.463 49.4032C397.026 49.3042 407.433 53.0167 414.668 59.4562C421.898 65.8912 425.999 75.0813 425.901 86.0238L425.901 86.0326C425.998 97.2496 421.176 106.687 412.834 113.331C404.483 119.983 392.582 123.851 378.524 123.851H352.014H351.514V124.351V168.661V169.161H352.014Z" stroke="#E0E0E0"/>
<path d="M296.188 109H285.343V139.709H278.024V111.136H267.531V186.44H278.024V148.788H285.343V190H296.188V109ZM226 165.522L232.525 173.355C255.142 160.092 261.844 141.578 261.888 118.969H230.056V128.048H250.91C249.411 143.937 242.357 155.82 226 165.522Z" fill="black"/>
<path d="M314.07 112.649H302.872V147.987H341.758V112.649H330.471V122.263H314.07V112.649ZM310.896 162.051H352.956V167.124H311.072V189.466H366.447V180.476H322.094V175.224H364.154V153.238H310.896V162.051ZM314.07 139.086V130.808H330.471V139.086H314.07ZM352.868 150.212H364.154V133.923H375V124.755H364.154V109H352.868V150.212Z" fill="black"/>
<path d="M30.3315 128.167V116.833H19.6409V128.167C19.5994 142.875 13.1768 157.417 0 163L6.38122 171.833C15.5801 167.625 21.7541 159.375 25.1519 149.125C28.5912 158.5 34.558 166.083 43.1768 170L49.3923 161.5C36.5884 156.042 30.2901 142.083 30.3315 128.167ZM53.453 187H64.1436V111H53.453V187Z" fill="black"/>
<path d="M109.79 121V115.5H98.5193V121C98.4365 132 88.616 143.917 71.8343 146.917L76.3923 155.75C89.4447 153.083 99.2238 145.583 104.196 135.958C109.086 145.667 118.823 153.125 132 155.75L136.641 146.917C119.569 144 109.749 132.125 109.79 121ZM70.0939 177.5H139.127V168.75H70.0939V177.5Z" fill="black"/>
<path d="M170.934 115.5H142.177V153.25H147.315C158.71 153.292 165.92 153 174.58 151.5L173.503 143.25C166.5 144.375 160.492 144.75 152.287 144.875V138.25H168.116V130.083H152.287V124.083H170.934V115.5ZM152.536 186H204V159.25H152.536V186ZM163.061 177.5V167.583H193.558V177.5H163.061ZM171.348 137.75H178.972V155.75H189V112.167H178.972V129.25H171.348V137.75ZM193.972 156.25H204V111H193.972V156.25Z" fill="black"/>
</svg>
